<?xml version="1.0" encoding="UTF-8" standalone="no"?>
<svg
   xmlns:dc="http://purl.org/dc/elements/1.1/"
   xmlns:cc="http://creativecommons.org/ns#"
   xmlns:rdf="http://www.w3.org/1999/02/22-rdf-syntax-ns#"
   xmlns:svg="http://www.w3.org/2000/svg"
   xmlns="http://www.w3.org/2000/svg"
   height="96.449997"
   width="425.23999"
   id="svg56"
   version="1.1"
   viewBox="0 0 425.23998 96.449998">
  <metadata
     id="metadata60">
    <rdf:RDF>
      <cc:Work
         rdf:about="">
        <dc:format>image/svg+xml</dc:format>
        <dc:type
           rdf:resource="http://purl.org/dc/dcmitype/StillImage" />
      </cc:Work>
    </rdf:RDF>
  </metadata>
  <defs
     id="defs4">
    <style
       id="style2">.cls-1,.cls-2{fill:#fff;}.cls-2,.cls-3,.cls-4,.cls-5{fill-rule:evenodd;}.cls-3{fill:#004d8e;}.cls-4{fill:#1d1d1b;}.cls-5{fill:#b1971b;}</style>
  </defs>
  <title
     id="title6">Ativo 1</title>
  <g
     data-name="Camada 2"
     id="Camada_2">
    <g
       data-name="Camada 1"
       id="Camada_1-2">
      <path
         style="fill:#ffffff"
         id="path8"
         d="m 163.5,76.25 a 4.91,4.91 0 0 1 -1.73,-0.28 3.62,3.62 0 0 1 -1.39,-0.82 3.77,3.77 0 0 1 -0.88,-1.36 5.09,5.09 0 0 1 -0.31,-1.93 5.18,5.18 0 0 1 0.28,-1.81 3.69,3.69 0 0 1 2.27,-2.3 5.12,5.12 0 0 1 1.79,-0.31 5.3,5.3 0 0 1 1,0.08 6.58,6.58 0 0 1 0.79,0.14 q 0.38,0.13 0.68,0.25 l 0.54,0.23 v 2.07 h -0.26 c -0.08,-0.09 -0.23,-0.2 -0.4,-0.34 -0.17,-0.14 -0.34,-0.23 -0.54,-0.37 a 2.89,2.89 0 0 0 -0.68,-0.28 2.46,2.46 0 0 0 -0.79,-0.14 3.17,3.17 0 0 0 -0.88,0.14 2.84,2.84 0 0 0 -0.77,0.48 2.43,2.43 0 0 0 -0.54,0.88 3.35,3.35 0 0 0 -0.2,1.28 3,3 0 0 0 0.23,1.33 2.13,2.13 0 0 0 0.57,0.85 1.78,1.78 0 0 0 0.77,0.45 3,3 0 0 0 0.85,0.14 2.76,2.76 0 0 0 0.79,-0.14 2.26,2.26 0 0 0 0.71,-0.31 2.35,2.35 0 0 0 0.51,-0.37 2.79,2.79 0 0 0 0.4,-0.31 h 0.23 v 2 l -0.6,0.25 a 4.07,4.07 0 0 1 -0.62,0.23 c -0.26,0.06 -0.54,0.14 -0.77,0.17 a 5.21,5.21 0 0 1 -1,0.06 z m 11.06,-3.34 a 3.24,3.24 0 0 1 -0.94,2.47 3.43,3.43 0 0 1 -2.58,0.94 3.47,3.47 0 0 1 -2.58,-0.94 3.76,3.76 0 0 1 0,-5 3.46,3.46 0 0 1 2.58,-0.91 3.53,3.53 0 0 1 2.58,0.91 3.31,3.31 0 0 1 0.94,2.49 z M 172,74.47 a 1.92,1.92 0 0 0 0.28,-0.6 4.07,4.07 0 0 0 0.11,-1 4.21,4.21 0 0 0 -0.11,-0.94 1.8,1.8 0 0 0 -0.28,-0.62 0.92,0.92 0 0 0 -0.42,-0.31 1.35,1.35 0 0 0 -0.57,-0.11 1.65,1.65 0 0 0 -0.54,0.09 1.35,1.35 0 0 0 -0.42,0.31 1.82,1.82 0 0 0 -0.31,0.62 4.27,4.27 0 0 0 -0.11,1 4.16,4.16 0 0 0 0.11,0.91 1.41,1.41 0 0 0 0.28,0.62 0.93,0.93 0 0 0 0.42,0.31 1.32,1.32 0 0 0 0.6,0.11 1.61,1.61 0 0 0 0.51,-0.08 1.19,1.19 0 0 0 0.45,-0.31 z m 10.4,1.62 h -2.07 v -3.15 a 7.18,7.18 0 0 0 0,-0.79 2,2 0 0 0 -0.14,-0.57 0.9,0.9 0 0 0 -0.34,-0.31 1.64,1.64 0 0 0 -0.6,-0.09 2,2 0 0 0 -0.57,0.09 2.56,2.56 0 0 0 -0.62,0.31 v 4.51 H 176 V 69.7 h 2.07 v 0.71 a 4.81,4.81 0 0 1 1,-0.65 2.41,2.41 0 0 1 1.11,-0.23 2.1,2.1 0 0 1 1.62,0.6 2.45,2.45 0 0 1 0.6,1.81 z m 7.45,-2 a 1.85,1.85 0 0 1 -0.91,1.59 4.08,4.08 0 0 1 -2.44,0.62 6.33,6.33 0 0 1 -1.53,-0.17 8.12,8.12 0 0 1 -1.13,-0.34 v -1.7 h 0.2 c 0.11,0.08 0.23,0.14 0.37,0.25 a 3.86,3.86 0 0 0 0.57,0.26 4.18,4.18 0 0 0 0.71,0.23 4.4,4.4 0 0 0 0.88,0.09 2.26,2.26 0 0 0 0.88,-0.11 0.44,0.44 0 0 0 0.31,-0.4 0.34,0.34 0 0 0 -0.17,-0.34 1.77,1.77 0 0 0 -0.65,-0.2 3.09,3.09 0 0 0 -0.62,-0.11 c -0.25,-0.06 -0.51,-0.09 -0.71,-0.14 a 2.71,2.71 0 0 1 -1.3,-0.71 1.83,1.83 0 0 1 -0.43,-1.22 1.9,1.9 0 0 1 0.88,-1.53 4.27,4.27 0 0 1 2.41,-0.6 5.28,5.28 0 0 1 1.36,0.14 4,4 0 0 1 1,0.31 v 1.59 h -0.17 a 3.44,3.44 0 0 0 -1,-0.51 3.5,3.5 0 0 0 -1.19,-0.2 1.91,1.91 0 0 0 -0.85,0.14 c -0.23,0.08 -0.34,0.2 -0.34,0.37 a 0.42,0.42 0 0 0 0.17,0.37 2.85,2.85 0 0 0 0.71,0.23 l 0.68,0.11 0.74,0.17 a 2.19,2.19 0 0 1 1.19,0.65 1.72,1.72 0 0 1 0.4,1.13 z m 7.65,-0.79 h -4.71 a 1.48,1.48 0 0 0 0.6,1.16 2.53,2.53 0 0 0 1.53,0.4 3.31,3.31 0 0 0 1.28,-0.25 4.36,4.36 0 0 0 1,-0.48 h 0.23 v 1.64 a 10.92,10.92 0 0 1 -1.3,0.4 7,7 0 0 1 -1.39,0.14 4.57,4.57 0 0 1 -2.95,-0.88 3,3 0 0 1 -1,-2.47 3.44,3.44 0 0 1 1,-2.52 3.84,3.84 0 0 1 2.66,-0.91 3.11,3.11 0 0 1 2.35,0.79 3,3 0 0 1 0.79,2.27 z m -2,-1.19 a 1.43,1.43 0 0 0 -0.31,-1 1.28,1.28 0 0 0 -0.94,-0.31 1.59,1.59 0 0 0 -1,0.31 1.3,1.3 0 0 0 -0.43,1 z m 5.53,4 h -2 v -8.87 h 2 z m 8.36,0 h -2 v -3.17 a 7,7 0 0 0 -0.06,-0.79 1.37,1.37 0 0 0 -0.14,-0.57 0.66,0.66 0 0 0 -0.31,-0.31 2.11,2.11 0 0 0 -1.19,0 2.56,2.56 0 0 0 -0.62,0.31 v 4.51 h -2 v -8.85 h 2 v 3.17 a 4.8,4.8 0 0 1 1,-0.65 2.41,2.41 0 0 1 1.11,-0.23 2.21,2.21 0 0 1 1.64,0.6 2.57,2.57 0 0 1 0.57,1.81 z m 8.42,-3.17 a 3.23,3.23 0 0 1 -0.91,2.47 3.47,3.47 0 0 1 -2.58,0.94 3.43,3.43 0 0 1 -2.58,-0.94 3.76,3.76 0 0 1 0,-5 3.46,3.46 0 0 1 2.58,-0.91 3.53,3.53 0 0 1 2.58,0.91 3.3,3.3 0 0 1 0.91,2.49 z m -2.52,1.56 a 1.52,1.52 0 0 0 0.31,-0.6 4.32,4.32 0 0 0 0.08,-1 4.39,4.39 0 0 0 -0.08,-0.94 2.56,2.56 0 0 0 -0.28,-0.62 1,1 0 0 0 -0.45,-0.31 1.15,1.15 0 0 0 -0.54,-0.11 1.66,1.66 0 0 0 -0.54,0.09 1.36,1.36 0 0 0 -0.43,0.31 1.83,1.83 0 0 0 -0.31,0.62 4.28,4.28 0 0 0 -0.11,1 2.94,2.94 0 0 0 0.11,0.91 1.41,1.41 0 0 0 0.28,0.62 0.93,0.93 0 0 0 0.43,0.31 1.27,1.27 0 0 0 0.57,0.11 1.65,1.65 0 0 0 0.54,-0.08 0.93,0.93 0 0 0 0.43,-0.31 z m 14.17,-5.22 h -3.88 v 1.59 h 3.6 v 1.64 h -3.6 v 3.6 h -2.18 v -8.5 h 6.07 z m 7.71,4 h -4.71 a 1.54,1.54 0 0 0 0.57,1.16 2.69,2.69 0 0 0 1.56,0.4 3.17,3.17 0 0 0 1.25,-0.25 3.37,3.37 0 0 0 1,-0.48 h 0.25 v 1.64 a 9.86,9.86 0 0 1 -1.33,0.4 6.48,6.48 0 0 1 -1.36,0.14 4.52,4.52 0 0 1 -2.95,-0.88 3,3 0 0 1 -1,-2.47 3.33,3.33 0 0 1 1,-2.52 3.79,3.79 0 0 1 2.67,-0.91 3.15,3.15 0 0 1 2.35,0.79 3,3 0 0 1 0.79,2.27 z m -2,-1.19 a 1.6,1.6 0 0 0 -0.31,-1 1.41,1.41 0 0 0 -1,-0.31 1.51,1.51 0 0 0 -1,0.31 1.3,1.3 0 0 0 -0.42,1 z m 9.69,4 h -2 v -0.65 a 4,4 0 0 1 -1,0.62 2.61,2.61 0 0 1 -1.08,0.23 2.31,2.31 0 0 1 -1.87,-0.91 4,4 0 0 1 -0.68,-2.44 3.86,3.86 0 0 1 0.23,-1.45 3.74,3.74 0 0 1 0.65,-1.08 2.77,2.77 0 0 1 0.94,-0.65 2.57,2.57 0 0 1 1.11,-0.23 2.91,2.91 0 0 1 0.94,0.11 4.35,4.35 0 0 1 0.76,0.31 v -2.71 h 2 z m -2,-1.76 v -3.15 a 2.63,2.63 0 0 0 -0.45,-0.11 2.83,2.83 0 0 0 -0.45,-0.06 1.48,1.48 0 0 0 -1.22,0.51 2.33,2.33 0 0 0 -0.4,1.42 2.17,2.17 0 0 0 0.34,1.36 1.19,1.19 0 0 0 1,0.43 2.21,2.21 0 0 0 0.6,-0.11 2.62,2.62 0 0 0 0.57,-0.28 z m 10.29,-1 h -4.71 a 1.54,1.54 0 0 0 0.57,1.16 2.69,2.69 0 0 0 1.56,0.4 3.17,3.17 0 0 0 1.25,-0.25 3.37,3.37 0 0 0 1,-0.48 h 0.23 v 1.64 a 8.48,8.48 0 0 1 -1.3,0.4 6.48,6.48 0 0 1 -1.36,0.14 4.52,4.52 0 0 1 -2.95,-0.88 3,3 0 0 1 -1,-2.47 3.33,3.33 0 0 1 1,-2.52 3.79,3.79 0 0 1 2.66,-0.91 3.15,3.15 0 0 1 2.35,0.79 3.1,3.1 0 0 1 0.79,2.27 z m -2,-1.19 a 1.44,1.44 0 0 0 -0.34,-1 1.28,1.28 0 0 0 -0.94,-0.31 1.51,1.51 0 0 0 -1,0.31 1.31,1.31 0 0 0 -0.42,1 z m 8.11,-0.43 H 259 a 2.74,2.74 0 0 0 -0.42,-0.08 h -0.48 a 3.13,3.13 0 0 0 -0.77,0.06 3.91,3.91 0 0 0 -0.74,0.17 v 4.28 h -2 V 69.7 h 2 v 0.93 a 3.74,3.74 0 0 1 1.19,-0.77 2.2,2.2 0 0 1 0.91,-0.2 h 0.25 c 0.08,0 0.17,0 0.23,0 z m 5,2.78 v -1.38 a 5.16,5.16 0 0 0 -0.91,0.08 3.4,3.4 0 0 0 -0.74,0.14 0.74,0.74 0 0 0 -0.45,0.28 0.67,0.67 0 0 0 -0.17,0.48 1,1 0 0 0 0,0.31 0.69,0.69 0 0 0 0.48,0.43 2.48,2.48 0 0 0 0.57,0.06 1.66,1.66 0 0 0 0.62,-0.14 2.67,2.67 0 0 0 0.57,-0.31 z m 0,1 c -0.11,0.06 -0.26,0.17 -0.43,0.28 a 2,2 0 0 1 -0.45,0.28 2.28,2.28 0 0 1 -0.62,0.2 2.87,2.87 0 0 1 -0.71,0.08 2.17,2.17 0 0 1 -1.53,-0.57 2,2 0 0 1 -0.62,-1.45 2.08,2.08 0 0 1 0.31,-1.16 2.25,2.25 0 0 1 0.91,-0.68 4.46,4.46 0 0 1 1.42,-0.37 16.25,16.25 0 0 1 1.73,-0.17 v 0 a 0.77,0.77 0 0 0 -0.43,-0.74 3,3 0 0 0 -1.28,-0.2 3.71,3.71 0 0 0 -1.08,0.17 l -0.82,0.28 h -0.2 v -1.59 c 0.23,-0.06 0.57,-0.14 1,-0.23 a 12.93,12.93 0 0 1 1.47,-0.11 4.7,4.7 0 0 1 2.52,0.54 2,2 0 0 1 0.79,1.7 v 4.34 h -2 z m 6,0.65 h -2 v -8.9 h 2 z m 12.16,0 h -2 v -0.65 a 4.64,4.64 0 0 1 -1,0.62 2.61,2.61 0 0 1 -1.08,0.23 2.31,2.31 0 0 1 -1.87,-0.91 4,4 0 0 1 -0.71,-2.44 3.85,3.85 0 0 1 0.25,-1.45 3.67,3.67 0 0 1 0.62,-1.08 3.2,3.2 0 0 1 1,-0.65 2.58,2.58 0 0 1 1.11,-0.23 3,3 0 0 1 0.94,0.11 7.43,7.43 0 0 1 0.77,0.31 v -2.76 h 2 z m -2,-1.76 v -3.2 a 3,3 0 0 0 -0.48,-0.11 2.18,2.18 0 0 0 -0.42,-0.06 1.48,1.48 0 0 0 -1.22,0.51 2.34,2.34 0 0 0 -0.4,1.42 2.4,2.4 0 0 0 0.31,1.36 1.25,1.25 0 0 0 1,0.43 2.22,2.22 0 0 0 0.6,-0.11 3.53,3.53 0 0 0 0.57,-0.28 z m 10.26,-1 H 286 a 1.54,1.54 0 0 0 0.57,1.16 2.63,2.63 0 0 0 1.56,0.4 3.17,3.17 0 0 0 1.25,-0.25 3.83,3.83 0 0 0 1,-0.48 h 0.23 v 1.64 a 9.6,9.6 0 0 1 -1.3,0.4 6.91,6.91 0 0 1 -1.36,0.14 4.52,4.52 0 0 1 -2.95,-0.88 3,3 0 0 1 -1,-2.47 3.33,3.33 0 0 1 1,-2.52 3.79,3.79 0 0 1 2.66,-0.91 3.16,3.16 0 0 1 2.35,0.79 3.09,3.09 0 0 1 0.77,2.27 z m -2,-1.19 a 1.43,1.43 0 0 0 -0.31,-1 1.28,1.28 0 0 0 -0.94,-0.31 1.51,1.51 0 0 0 -1,0.31 1.3,1.3 0 0 0 -0.43,1 z m 13.72,4 h -6.12 v -8.58 h 6.12 v 1.64 h -3.94 v 1.47 h 3.66 v 1.64 h -3.66 v 2.1 h 3.94 z m 8.16,0 h -2.26 v -3.25 a 6.94,6.94 0 0 0 0,-0.79 2,2 0 0 0 -0.14,-0.57 0.9,0.9 0 0 0 -0.34,-0.31 1.71,1.71 0 0 0 -0.62,-0.09 1.76,1.76 0 0 0 -0.54,0.09 2.72,2.72 0 0 0 -0.65,0.31 v 4.51 h -2 V 69.7 h 2 v 0.71 a 5,5 0 0 1 1.08,-0.65 2.34,2.34 0 0 1 1.11,-0.23 2.19,2.19 0 0 1 1.62,0.6 2.46,2.46 0 0 1 0.59,1.81 z m 8.11,-0.71 a 4,4 0 0 1 -0.25,1.5 2.31,2.31 0 0 1 -0.74,1 3.3,3.3 0 0 1 -1.11,0.51 5.93,5.93 0 0 1 -1.47,0.14 9.8,9.8 0 0 1 -1.3,-0.06 9.28,9.28 0 0 1 -1.13,-0.2 v -1.75 h 0.26 a 5.27,5.27 0 0 0 0.94,0.28 4,4 0 0 0 1,0.11 2.72,2.72 0 0 0 0.91,-0.11 1.08,1.08 0 0 0 0.57,-0.28 1.12,1.12 0 0 0 0.25,-0.48 4.07,4.07 0 0 0 0.06,-0.68 v -0.11 a 2.62,2.62 0 0 1 -0.82,0.48 2.71,2.71 0 0 1 -1,0.17 2.61,2.61 0 0 1 -2.07,-0.79 3.61,3.61 0 0 1 -0.74,-2.47 3.79,3.79 0 0 1 0.23,-1.36 3.08,3.08 0 0 1 0.62,-1 3.18,3.18 0 0 1 0.94,-0.62 3,3 0 0 1 1.11,-0.2 3.35,3.35 0 0 1 1,0.11 3.16,3.16 0 0 1 0.76,0.34 l 0.08,-0.28 h 2 z m -2.07,-1.3 v -3 a 1.53,1.53 0 0 0 -0.42,-0.11 2.84,2.84 0 0 0 -0.45,-0.06 1.52,1.52 0 0 0 -1.22,0.48 1.84,1.84 0 0 0 -0.4,1.3 1.91,1.91 0 0 0 0.34,1.28 1.29,1.29 0 0 0 1,0.37 1.49,1.49 0 0 0 0.6,-0.11 1.59,1.59 0 0 0 0.54,-0.25 z m 10.29,-0.79 H 322 a 1.46,1.46 0 0 0 0.57,1.16 2.57,2.57 0 0 0 1.56,0.4 3.16,3.16 0 0 0 1.25,-0.25 3.81,3.81 0 0 0 1,-0.48 h 0.23 v 1.64 a 9.56,9.56 0 0 1 -1.3,0.4 6.91,6.91 0 0 1 -1.36,0.14 4.46,4.46 0 0 1 -2.95,-1 3,3 0 0 1 -1,-2.47 3.33,3.33 0 0 1 1,-2.52 3.79,3.79 0 0 1 2.67,-0.91 3.08,3.08 0 0 1 2.32,0.79 3,3 0 0 1 0.79,2.27 z m -2,-1.19 a 1.43,1.43 0 0 0 -0.31,-1 1.28,1.28 0 0 0 -0.94,-0.31 1.45,1.45 0 0 0 -1,0.31 1.42,1.42 0 0 0 -0.45,1 z m 9.92,4 h -2.31 v -3.26 a 7.19,7.19 0 0 0 0,-0.79 2.05,2.05 0 0 0 -0.14,-0.57 0.9,0.9 0 0 0 -0.34,-0.31 1.65,1.65 0 0 0 -0.6,-0.09 1.81,1.81 0 0 0 -0.57,0.09 2.13,2.13 0 0 0 -0.62,0.31 v 4.51 h -2.07 V 69.7 h 2.07 v 0.71 a 4.24,4.24 0 0 1 1,-0.65 2.34,2.34 0 0 1 1.11,-0.23 2.14,2.14 0 0 1 1.62,0.6 2.46,2.46 0 0 1 0.59,1.81 z m 8.31,0 h -2.07 v -3.26 a 7.18,7.18 0 0 0 0,-0.79 2,2 0 0 0 -0.14,-0.57 0.89,0.89 0 0 0 -0.34,-0.31 1.64,1.64 0 0 0 -0.59,-0.09 1.82,1.82 0 0 0 -0.57,0.09 2.57,2.57 0 0 0 -0.62,0.31 v 4.51 h -2.07 v -8.85 h 2.07 v 3.17 a 4.81,4.81 0 0 1 1,-0.65 2.41,2.41 0 0 1 1.11,-0.23 2.1,2.1 0 0 1 1.62,0.6 2.45,2.45 0 0 1 0.6,1.81 z m 5.75,-1.64 v -1.45 a 5.41,5.41 0 0 0 -0.91,0.08 3.38,3.38 0 0 0 -0.74,0.14 0.84,0.84 0 0 0 -0.45,0.28 0.67,0.67 0 0 0 -0.17,0.48 c 0,0.14 0,0.23 0,0.31 a 0.64,0.64 0 0 0 0.17,0.26 0.67,0.67 0 0 0 0.31,0.17 2.78,2.78 0 0 0 0.59,0.06 1.79,1.79 0 0 0 0.62,-0.14 3.35,3.35 0 0 0 0.54,-0.31 z m 0,1 a 2.7,2.7 0 0 0 -0.4,0.28 3,3 0 0 1 -0.48,0.28 2.26,2.26 0 0 1 -0.62,0.2 2.7,2.7 0 0 1 -0.71,0.08 2.27,2.27 0 0 1 -1.53,-0.57 2,2 0 0 1 -0.59,-1.45 1.88,1.88 0 0 1 0.31,-1.16 2,2 0 0 1 0.88,-0.68 4.48,4.48 0 0 1 1.42,-0.37 17,17 0 0 1 1.73,-0.17 v 0 a 0.76,0.76 0 0 0 -0.42,-0.74 3,3 0 0 0 -1.28,-0.2 3.85,3.85 0 0 0 -1.08,0.17 c -0.37,0.14 -0.65,0.23 -0.82,0.28 h -0.2 v -1.66 c 0.23,-0.06 0.57,-0.14 1.08,-0.23 a 12.44,12.44 0 0 1 1.45,-0.11 4.7,4.7 0 0 1 2.52,0.54 1.91,1.91 0 0 1 0.79,1.7 v 4.34 h -2 z m 8.56,-3.77 H 357 l -0.4,-0.08 h -0.48 a 3.37,3.37 0 0 0 -0.79,0.06 3.64,3.64 0 0 0 -0.71,0.17 v 4.28 h -2.07 V 69.7 h 2.07 v 0.93 a 3.68,3.68 0 0 1 1.16,-0.77 2.42,2.42 0 0 1 0.94,-0.2 h 0.23 c 0.11,0 0.2,0 0.25,0 z m 3.2,4.42 h -2 V 69.7 h 2 z m 0.06,-7.29 h -2.39 v -1.68 h 2.15 z m 5.75,5.64 v -1.45 a 5.42,5.42 0 0 0 -0.91,0.08 3.39,3.39 0 0 0 -0.74,0.14 0.84,0.84 0 0 0 -0.45,0.28 0.67,0.67 0 0 0 -0.17,0.48 c 0,0.14 0,0.23 0,0.31 a 0.67,0.67 0 0 0 0.17,0.26 0.85,0.85 0 0 0 0.31,0.17 2.76,2.76 0 0 0 0.59,0.06 1.79,1.79 0 0 0 0.62,-0.14 2.45,2.45 0 0 0 0.54,-0.31 z m 0,1 a 2.75,2.75 0 0 0 -0.4,0.28 3,3 0 0 1 -0.48,0.28 2.27,2.27 0 0 1 -0.62,0.2 2.69,2.69 0 0 1 -0.71,0.08 2.27,2.27 0 0 1 -1.53,-0.57 2,2 0 0 1 -0.6,-1.45 1.88,1.88 0 0 1 0.31,-1.16 2.15,2.15 0 0 1 0.88,-0.68 4.47,4.47 0 0 1 1.42,-0.37 16.85,16.85 0 0 1 1.76,-0.17 v 0 a 0.79,0.79 0 0 0 -0.45,-0.74 3,3 0 0 0 -1.28,-0.2 3.86,3.86 0 0 0 -1.08,0.17 c -0.37,0.14 -0.65,0.23 -0.82,0.28 h -0.2 v -1.66 c 0.23,-0.06 0.57,-0.14 1.08,-0.23 a 12.46,12.46 0 0 1 1.45,-0.11 4.63,4.63 0 0 1 2.52,0.54 1.91,1.91 0 0 1 0.79,1.7 v 4.34 h -2 z m -136.66,12 h -4.68 a 1.45,1.45 0 0 0 0.57,1.16 2.57,2.57 0 0 0 1.33,0.28 3.74,3.74 0 0 0 1.25,-0.23 5,5 0 0 0 1,-0.51 h 0.23 v 1.64 a 9.67,9.67 0 0 1 -1.3,0.4 6.93,6.93 0 0 1 -1.36,0.14 4.46,4.46 0 0 1 -2.95,-0.88 3,3 0 0 1 -1,-2.47 3.24,3.24 0 0 1 1,-2.49 3.68,3.68 0 0 1 2.66,-0.94 3.08,3.08 0 0 1 2.32,0.79 3,3 0 0 1 0.79,2.27 z m -2,-1.19 a 1.36,1.36 0 0 0 -0.31,-1 1.18,1.18 0 0 0 -0.94,-0.34 1.6,1.6 0 0 0 -1,0.31 1.3,1.3 0 0 0 -0.43,1 z m 15.42,4 h -2.24 l -0.59,-1.73 h -3.15 l -0.59,1.73 h -2.21 l 3.15,-8.5 h 2.52 z m -3.64,-3.37 -1,-3 -1,3 z m 10.71,2.55 A 3.87,3.87 0 0 1 250,91 a 2.15,2.15 0 0 1 -0.74,1 3.33,3.33 0 0 1 -1.11,0.51 5.86,5.86 0 0 1 -1.47,0.17 9.76,9.76 0 0 1 -1.3,-0.08 9.2,9.2 0 0 1 -1.13,-0.2 v -1.61 h 0.25 a 5.24,5.24 0 0 0 0.94,0.28 4,4 0 0 0 1,0.11 3.94,3.94 0 0 0 0.91,-0.09 1.35,1.35 0 0 0 0.57,-0.31 1.18,1.18 0 0 0 0.25,-0.45 4.66,4.66 0 0 0 0.06,-0.71 v -0.11 a 2.62,2.62 0 0 1 -0.82,0.48 2.7,2.7 0 0 1 -1,0.17 2.61,2.61 0 0 1 -2.07,-0.79 3.61,3.61 0 0 1 -0.74,-2.47 3.77,3.77 0 0 1 0.23,-1.36 3.07,3.07 0 0 1 0.62,-1 2.65,2.65 0 0 1 0.94,-0.6 2.58,2.58 0 0 1 1.11,-0.23 3.33,3.33 0 0 1 1,0.11 3.13,3.13 0 0 1 0.76,0.34 l 0.09,-0.28 h 2 z m -2.07,-1.3 v -2.9 a 1.52,1.52 0 0 0 -0.42,-0.11 2.58,2.58 0 0 0 -0.45,0 1.55,1.55 0 0 0 -1.22,0.45 2,2 0 0 0 -0.4,1.3 1.91,1.91 0 0 0 0.34,1.28 1.29,1.29 0 0 0 1,0.37 1.48,1.48 0 0 0 0.59,-0.11 1.57,1.57 0 0 0 0.54,-0.25 z m 8.65,-2.41 h -0.2 a 2.69,2.69 0 0 0 -0.42,-0.08 h -0.48 a 3.24,3.24 0 0 0 -0.77,0.06 3.88,3.88 0 0 0 -0.74,0.17 v 4.31 h -2 v -6.42 h 2 v 0.94 a 3.73,3.73 0 0 1 1.19,-0.77 2.39,2.39 0 0 1 0.91,-0.2 h 0.25 0.26 z m 7.68,1.25 a 3.45,3.45 0 0 1 -0.91,2.49 4.16,4.16 0 0 1 -5.19,0 3.45,3.45 0 0 1 -0.91,-2.49 3.31,3.31 0 0 1 0.94,-2.49 3.53,3.53 0 0 1 2.58,-0.91 3.57,3.57 0 0 1 2.58,0.91 3.41,3.41 0 0 1 0.91,2.49 z M 262,88.64 a 2,2 0 0 0 0.31,-0.6 4.14,4.14 0 0 0 0.08,-1 4.38,4.38 0 0 0 -0.08,-0.93 2.56,2.56 0 0 0 -0.28,-0.62 1.19,1.19 0 0 0 -0.45,-0.31 1.16,1.16 0 0 0 -0.54,-0.11 1.54,1.54 0 0 0 -0.54,0.08 1.45,1.45 0 0 0 -0.45,0.31 2.54,2.54 0 0 0 -0.28,0.62 3.07,3.07 0 0 0 -0.11,1 4.12,4.12 0 0 0 0.08,0.91 2.14,2.14 0 0 0 0.28,0.62 1.73,1.73 0 0 0 0.45,0.34 1.83,1.83 0 0 0 0.53,0.05 1.66,1.66 0 0 0 0.54,-0.08 0.92,0.92 0 0 0 0.42,-0.31 z"
         class="cls-1" />
      <path
         style="fill:#ffffff"
         id="path10"
         d="m 272.44,90.28 h -2.07 v -3.17 c 0,-0.25 0,-0.54 0,-0.79 a 2,2 0 0 0 -0.14,-0.57 0.67,0.67 0 0 0 -0.34,-0.28 1.22,1.22 0 0 0 -0.62,-0.11 2.12,2.12 0 0 0 -0.57,0.08 6.38,6.38 0 0 0 -0.62,0.31 v 4.54 h -2 v -6.41 h 2 v 0.71 a 5.55,5.55 0 0 1 1,-0.65 2.46,2.46 0 0 1 1.13,-0.23 2.18,2.18 0 0 1 1.62,0.6 2.45,2.45 0 0 1 0.59,1.81 z m 8.42,-3.2 a 3.36,3.36 0 0 1 -0.94,2.49 3.53,3.53 0 0 1 -2.58,0.91 3.58,3.58 0 0 1 -2.58,-0.91 3.46,3.46 0 0 1 -0.91,-2.49 3.41,3.41 0 0 1 0.91,-2.49 4.16,4.16 0 0 1 5.19,0 3.41,3.41 0 0 1 0.91,2.49 z m -2.52,1.56 a 1.93,1.93 0 0 0 0.28,-0.6 2.85,2.85 0 0 0 0.11,-1 3,3 0 0 0 -0.11,-0.93 1.82,1.82 0 0 0 -0.28,-0.62 0.92,0.92 0 0 0 -0.43,-0.31 1.27,1.27 0 0 0 -0.57,-0.11 1.37,1.37 0 0 0 -0.51,0.08 1.19,1.19 0 0 0 -0.45,0.31 1.82,1.82 0 0 0 -0.28,0.62 3.09,3.09 0 0 0 -0.11,1 4.11,4.11 0 0 0 0.08,0.91 1.59,1.59 0 0 0 0.28,0.62 1.26,1.26 0 0 0 0.43,0.34 1.88,1.88 0 0 0 0.59,0.08 1.77,1.77 0 0 0 0.54,-0.08 0.92,0.92 0 0 0 0.43,-0.31 z m 10.23,-2.89 v 4.54 h -2.07 v -4 a 1.34,1.34 0 0 0 -0.14,-0.54 0.67,0.67 0 0 0 -0.31,-0.31 1.5,1.5 0 0 0 -0.57,-0.08 1.52,1.52 0 0 0 -0.59,0.14 1.44,1.44 0 0 0 -0.51,0.26 v 4.54 h -2 v -6.42 h 2 v 0.71 a 4.11,4.11 0 0 1 1,-0.65 2.23,2.23 0 0 1 1.08,-0.23 2.14,2.14 0 0 1 1.11,0.28 2,2 0 0 1 0.76,0.82 6,6 0 0 1 1.19,-0.82 2.4,2.4 0 0 1 1.13,-0.28 2,2 0 0 1 1.59,0.62 2.69,2.69 0 0 1 0.54,1.79 v 4.17 h -2.07 v -3.2 a 6.43,6.43 0 0 0 0,-0.79 1.38,1.38 0 0 0 -0.11,-0.54 0.66,0.66 0 0 0 -0.31,-0.31 1.66,1.66 0 0 0 -0.59,-0.08 1.61,1.61 0 0 0 -0.51,0.08 6.47,6.47 0 0 0 -0.59,0.31 z m 8.14,4.54 h -2 v -6.41 h 2 z m 0.06,-7.31 h -2.15 v -1.57 h 2.15 z m 5.75,5.64 v -1.34 c -0.26,0 -0.57,0.06 -0.88,0.08 a 3.07,3.07 0 0 0 -0.74,0.14 1,1 0 0 0 -0.48,0.28 0.67,0.67 0 0 0 -0.17,0.48 1.06,1.06 0 0 0 0.06,0.34 c 0,0.06 0.06,0.14 0.17,0.23 a 0.56,0.56 0 0 0 0.31,0.17 2.47,2.47 0 0 0 0.57,0.06 1.79,1.79 0 0 0 0.62,-0.14 1.67,1.67 0 0 0 0.54,-0.31 z m 0,1 a 3,3 0 0 1 -0.4,0.28 2.88,2.88 0 0 1 -0.45,0.28 3.13,3.13 0 0 1 -0.62,0.2 3.08,3.08 0 0 1 -0.74,0.08 2.15,2.15 0 0 1 -1.5,-0.57 1.89,1.89 0 0 1 -0.62,-1.45 2.08,2.08 0 0 1 0.31,-1.16 2.16,2.16 0 0 1 0.88,-0.68 4.69,4.69 0 0 1 1.42,-0.37 16.92,16.92 0 0 1 1.76,-0.17 v 0 a 0.74,0.74 0 0 0 -0.45,-0.74 3.52,3.52 0 0 0 -1.28,-0.2 4,4 0 0 0 -1.08,0.17 c -0.37,0.14 -0.65,0.23 -0.82,0.28 h -0.17 V 84 a 6.89,6.89 0 0 1 1,-0.2 8.37,8.37 0 0 1 1.47,-0.14 4.76,4.76 0 0 1 2.52,0.54 2,2 0 0 1 0.77,1.7 v 4.37 h -2 z"
         class="cls-1" />
      <path
         style="fill:#ffffff;fill-rule:evenodd"
         id="path12"
         d="m 321.14,60.63 v -56 h 37.45 v 15.21 h -17.72 v 5.39 h 16.07 v 14.34 h -16.07 v 5.9 H 359 v 15.16 z m -43,0 v -56 h 37.45 v 15.21 h -17.33 v 6.49 h 15.65 v 14.35 h -15.65 v 20 z m -62.65,0 v -56 h 19.73 L 252.6,34 a 37.05,37.05 0 0 1 -0.48,-4.34 C 252,28.06 252,26 252,23.44 V 4.68 h 19.39 v 56 h -19.9 l -17.23,-29.1 a 34.07,34.07 0 0 1 0.45,4.05 c 0.11,1.42 0.17,3 0.17,4.82 v 20.18 z m -70.67,-34 a 20.62,20.62 0 0 0 -5.64,-3.94 14.63,14.63 0 0 0 -6,-1.3 10.59,10.59 0 0 0 -7.94,3.06 11,11 0 0 0 -3,8.08 10.85,10.85 0 0 0 2.76,7.89 10.31,10.31 0 0 0 7.71,2.95 15.52,15.52 0 0 0 5.9,-1.25 28.8,28.8 0 0 0 6.55,-3.94 V 59 a 46,46 0 0 1 -7.16,2.26 34.29,34.29 0 0 1 -6.58,0.65 32.37,32.37 0 0 1 -7.85,-0.91 28.5,28.5 0 0 1 -6.86,-2.61 29.92,29.92 0 0 1 -11.23,-10.83 29.16,29.16 0 0 1 -3.8,-15 30.71,30.71 0 0 1 2.15,-11.62 27.85,27.85 0 0 1 6.29,-9.44 28.16,28.16 0 0 1 9.64,-6.26 32.72,32.72 0 0 1 11.88,-2.13 31.93,31.93 0 0 1 13.18,2.83 z m 65.48,5.9 A 29.85,29.85 0 0 1 208.12,44 28.76,28.76 0 0 1 192,59.73 a 32.49,32.49 0 0 1 -23.41,0 28.59,28.59 0 0 1 -9.72,-6.35 26.86,26.86 0 0 1 -6.29,-9.33 30.47,30.47 0 0 1 -2.15,-11.51 30.82,30.82 0 0 1 2.16,-11.54 26.82,26.82 0 0 1 6.29,-9.38 28.4,28.4 0 0 1 9.69,-6.26 32.79,32.79 0 0 1 23.53,0 28.91,28.91 0 0 1 9.75,6.26 28.36,28.36 0 0 1 6.27,9.38 30.24,30.24 0 0 1 2.15,11.51 z m -29.96,10.58 a 8.72,8.72 0 0 0 6.83,-2.89 11.05,11.05 0 0 0 2.58,-7.68 11.25,11.25 0 0 0 -2.58,-7.74 9.45,9.45 0 0 0 -13.69,0 11.22,11.22 0 0 0 -2.58,7.71 11.05,11.05 0 0 0 2.58,7.68 8.82,8.82 0 0 0 6.86,2.89 z m 182.92,17.52 20,-56 h 22.39 l 19.59,56 h -21.67 l -1.81,-7 h -15.17 l -1.73,7 z m 26.33,-20.41 h 9 L 394,21.68 Z"
         class="cls-2" />
      <path
         style="fill:#ffffff;fill-rule:evenodd"
         id="path14"
         d="M 0,0 H 92.58 V 85.83 A 5.63,5.63 0 0 1 87,91.45 H 51.34 c -2.32,0 -3.94,1.67 -5,5 -0.94,-2.86 -2.35,-5 -5.22,-5 H 5.61 A 5.63,5.63 0 0 1 0,85.83 Z"
         class="cls-2" />
      <path
         style="fill:#004d8e;fill-rule:evenodd"
         id="path16"
         d="m 91.36,1.19 v 84.56 a 4.52,4.52 0 0 1 -4.51,4.51 H 51.28 a 5.17,5.17 0 0 0 -4.88,3.6 5.67,5.67 0 0 0 -5,-3.6 H 5.73 A 4.5,4.5 0 0 1 1.22,85.75 V 1.19 Z"
         class="cls-3" />
      <path
         style="fill:#1d1d1b;fill-rule:evenodd"
         id="path18"
         d="m 35.55,71.46 v 4.79 c 5.75,2.95 15.53,2.89 21.8,0 V 71.43 L 63,68.85 a 0.83,0.83 0 0 0 0.17,-1 L 63,67.18 v -4.31 c 0,-0.51 -0.23,-0.79 -0.74,-0.79 H 60 c -0.88,0 -1.11,-0.54 -0.43,-1.36 1.11,-2.72 0.37,-5.53 -2.24,-8.42 a 1.61,1.61 0 0 1 -1,-1.56 3.71,3.71 0 0 0 -1.13,-2.55 c 0,-0.91 -0.23,-2.1 -0.82,-2.21 l 0.06,-0.34 -0.25,-0.43 a 2,2 0 0 0 -0.09,-1.3 10.64,10.64 0 0 0 2.34,-1.91 3.34,3.34 0 0 0 0,1.3 16.35,16.35 0 0 0 0.56,1.7 4.53,4.53 0 0 1 0.17,3.29 4.23,4.23 0 0 0 0.71,3 3.39,3.39 0 0 0 3.4,1.47 10,10 0 0 1 0.17,-5.07 L 61.62,46.53 61.54,43 a 4.23,4.23 0 0 1 0.45,-1.7 l 0.51,-1.59 c 5,-19.22 -16.07,-27.35 -25.6,-17.4 1.7,0.4 3.2,0.91 4.14,2.21 0.54,0.74 0.23,1.19 -0.48,1 -0.17,-0.06 -1,-0.25 -1.87,-0.4 A 8.22,8.22 0 0 0 37.53,24.95 H 37.36 37.22 37.08 L 37,25 l -0.11,0.06 -0.09,0.06 -0.09,0.06 -0.06,0.11 v 0.23 l 0.06,0.11 0.06,0.14 c 0.06,0.11 0.08,0.23 0.14,0.34 l 0.08,0.26 c 0,0.09 0,0.17 0.06,0.25 a 0.83,0.83 0 0 1 0.06,0.26 c 0,0.08 0,0.17 0.06,0.28 0.06,0.11 0,0.17 0,0.26 v 0.51 a 0.78,0.78 0 0 1 0,0.25 1.28,1.28 0 0 1 0,0.31 l -0.45,0.43 c 0,0 -0.06,0.08 -0.11,0.14 l -0.08,0.17 a 0.94,0.94 0 0 0 -0.09,0.17 l -0.08,0.17 v 0.11 0.14 0.14 0.62 0.17 l 0.06,0.17 0.06,0.2 c 0,0.08 0.09,0.2 0.11,0.31 v 0.26 a 2,2 0 0 1 -0.09,0.23 l -0.08,0.14 -0.11,0.14 -0.08,0.14 -0.06,0.14 -0.06,0.14 -0.06,0.14 v 0.14 0.14 0.14 0.11 0.28 0.14 0.11 l 0.06,0.28 a 4.8,4.8 0 0 0 0.11,0.62 v 0.25 0.14 0.11 0.25 0.14 0.11 0.11 0.14 l -0.06,0.11 -0.25,0.48 -0.31,0.57 c -0.14,0.2 -0.28,0.4 -0.4,0.6 L 34.16,39 c 0,0 0,0.09 0,0.11 a 0.17,0.17 0 0 0 0,0.11 0.31,0.31 0 0 0 0,0.14 0.26,0.26 0 0 0 0,0.14 0.21,0.21 0 0 0 0,0.11 0.17,0.17 0 0 0 0,0.11 c 0,0 0,0.06 0.06,0.08 a 0.39,0.39 0 0 0 0.08,0.11 0.06,0.06 0 0 1 0.06,0.06 6,6 0 0 1 0.62,0.57 c 0,0.06 0.08,0.11 0.11,0.17 v 0 0.06 0.09 0.11 0.14 c 0,0.2 0,0.37 0,0.57 v 0.37 0.09 0.06 0.06 0.09 0.06 l 0.06,0.06 0.06,0.06 0.06,0.06 h 0.06 v 0 l -0.11,0.11 -0.08,0.08 v 0.09 l -0.06,0.08 v 0.09 0.09 0.09 0.09 0.08 0.09 a 0.48,0.48 0 0 1 0.06,0.14 0.62,0.62 0 0 0 0.09,0.14 l 0.08,0.14 v 0.06 0.09 0.4 l -0.09,0.34 v 0.14 l -0.17,0.51 c 0,0.06 0,0.09 0,0.14 a 0.26,0.26 0 0 0 0,0.14 V 46 c 0,0.06 0,0.08 0,0.14 l 0.06,0.14 a 0.22,0.22 0 0 0 0.06,0.11 l 0.08,0.14 a 0.4,0.4 0 0 1 0.09,0.11 l 0.11,0.09 0.09,0.08 0.17,0.09 0.2,0.11 0.17,0.09 0.2,0.09 0.23,0.08 0.2,0.06 0.34,0.08 0.34,0.09 c 0.11,0 0.26,0 0.37,0.06 0.11,0.06 0.26,0 0.37,0.06 0.11,0.06 0.28,0 0.4,0 h 0.74 l 0.25,0.51 c 0.14,0.43 0.28,0.85 0.4,1.3 0,0 0,0 0,0.06 v 0 a 19.1,19.1 0 0 1 0.37,2 c 0.08,0.51 -0.06,0.79 -0.4,0.82 A 17.27,17.27 0 0 0 34.87,55 c -2.15,1.7 -2.78,3.66 -0.94,6 0.4,0.65 0.17,1 -0.62,1 h -2.67 a 0.75,0.75 0 0 0 -0.85,0.88 l 0.09,3 a 4.62,4.62 0 0 1 -0.26,1.73 c -0.28,0.62 -0.28,1.11 0.11,1.42 z"
         class="cls-4" />
      <path
         style="fill:#b1971b;fill-rule:evenodd"
         id="path20"
         d="m 49.1,46.63 c -0.43,-1.7 -0.85,-3.17 -2,-3.77 0.37,-3.74 -3.34,-0.82 -0.74,0.54 a 5.67,5.67 0 0 0 0,1.7 5.37,5.37 0 0 1 -0.28,3.32 4.9,4.9 0 0 0 0.17,2.95 c 0.2,-0.34 0.43,-0.45 0.71,-0.31 A 8.12,8.12 0 0 0 47,52 a 3.9,3.9 0 0 0 2,3.71 c 0.14,0.06 0.2,0.2 0.08,0.37 a 5,5 0 0 1 -1,1.13 2.41,2.41 0 0 0 -0.77,1.62 1.9,1.9 0 0 0 1,-0.88 1.42,1.42 0 0 0 1.16,-1.87 10.42,10.42 0 0 1 -1.11,-2 c -0.11,-0.43 0,-0.68 0.28,-0.71 a 11.07,11.07 0 0 0 2.07,3.34 5.94,5.94 0 0 1 -1.56,2 4.15,4.15 0 0 0 -1.76,2.49 l -0.79,0.28 q 0.42,0.85 2.72,0.08 a 2.15,2.15 0 0 1 0.85,-1.67 2.7,2.7 0 0 0 1.11,-1.59 l 0.09,0.06 -0.37,1.11 a 3.14,3.14 0 0 0 -0.88,1.28 c -1,1.56 2.15,1.36 2.78,0.51 A 2.57,2.57 0 0 1 51.77,58.45 1.86,1.86 0 0 0 52,56.78 25.29,25.29 0 0 0 50.36,54.37 c 0.51,0.42 1.36,0.79 1.45,1.64 a 1.72,1.72 0 0 0 0.88,1 c -1,0.77 -0.31,3.6 0.91,3.83 0.11,-0.26 0,-0.57 -0.34,-0.88 a 0.64,0.64 0 0 1 0.79,0.17 c -0.23,2.27 3.32,3.32 2.13,-0.11 0.6,0.28 0.79,-0.06 0.4,-0.4 l -1.3,-0.91 c -0.6,-0.34 -0.57,-1.11 0,-2.24 h 0.14 c 0.11,1.33 0.51,2.15 1.25,2.44 -0.2,-0.88 0.62,-1 0.77,-0.23 l -0.11,1.81 c -0.09,1.47 1,1.56 0.91,0 l -0.11,-1.28 c 0.34,-0.51 0.62,-0.82 0.74,-0.77 l -0.28,1.08 c -0.51,1.39 0.71,1.36 0.85,-0.77 a 6.33,6.33 0 0 0 -1,-3.88 1.7,1.7 0 0 0 0.18,1.13 c 0.34,1.13 -0.77,1.36 -0.94,0.17 l 0.06,-0.85 a 2.19,2.19 0 0 1 -0.23,-1.33 2.65,2.65 0 0 1 -0.6,-1.36 c 0,-0.34 -0.26,-0.74 -0.82,-1 -0.48,-1.13 -1.08,-1.5 -1.76,-1.3 -0.25,0 -0.31,0.17 -0.11,0.37 a 4.92,4.92 0 0 1 2.52,3.32 l 0.14,0.43 c -0.31,0.14 -0.31,0.42 -0.17,0.74 a 1.21,1.21 0 0 1 -0.51,0.17 0.74,0.74 0 0 1 -0.11,-0.77 1.79,1.79 0 0 0 -1,-1.93 L 55,52.86 c 0.11,0.17 0.11,0.28 0.06,0.34 a 3.1,3.1 0 0 1 0.4,0.6 c 0.09,0.14 0.06,0.23 0,0.28 a 3.77,3.77 0 0 1 0.48,1.28 v 0 a 1.47,1.47 0 0 1 0.57,0.71 1.3,1.3 0 0 0 0.79,0.94 1.43,1.43 0 0 1 0.41,0.99 c -1,0 -1.79,-1.25 -2.49,-2.61 a 1.57,1.57 0 0 0 -1,-0.79 c -0.65,-0.54 -0.14,-1.5 0.62,-0.62 0.34,-1.08 -0.6,-1.93 -2.44,-2.64 0.06,0.23 0.26,0.43 0.65,0.6 L 53,52.1 a 4.27,4.27 0 0 1 -2.32,-1.22 c -1.47,-2.64 2,-1.16 2.81,0.45 0.26,-1.3 -1,-2.52 -2.52,-2.86 l -1.56,-1.36 -0.09,0.88 h -0.4 a 2.94,2.94 0 0 1 0.6,2.18 c -0.08,0.28 -0.2,0.31 -0.31,0.06 l -0.4,-0.54 0.06,0.71 C 48.3,50.34 48.16,49.63 48.33,48.73 A 2.22,2.22 0 0 1 48.47,46 Z m -1.42,5.64 a 3.4,3.4 0 0 1 2.24,1.56 C 49.75,53.66 49.58,53.46 49.44,53.29 A 2.68,2.68 0 0 0 48.16,53 Z"
         class="cls-5" />
      <path
         style="fill:#b1971b;fill-rule:evenodd"
         id="path22"
         d="m 37.5,25.74 c 5,0.06 10.77,5.36 12.93,11.71 A 2.05,2.05 0 0 0 49.15,38.1 23.1,23.1 0 0 0 44.9,31.67 l -0.11,0.37 a 3.3,3.3 0 0 0 0.94,1.16 4,4 0 0 1 0.82,1 3.35,3.35 0 0 1 -0.71,-0.11 v 0.37 a 4.3,4.3 0 0 1 -0.91,-0.85 1.36,1.36 0 0 0 0.62,1 c 0.48,0.34 1,0.65 1.47,0.94 a 1.24,1.24 0 0 1 0.4,0.48 c -0.57,0.17 -0.51,0.48 0.11,0.94 0,0 0.11,0.06 0.14,0.09 -0.26,0.08 -0.43,0.77 -0.26,1.13 a 4.34,4.34 0 0 1 0.45,1 l 0.23,-0.57 0.45,-0.11 0.14,0.31 a 1.81,1.81 0 0 0 0.32,1.83 5.22,5.22 0 0 0 -0.68,2.55 3.79,3.79 0 0 1 -0.77,-3 q 0,-0.3 -0.34,-0.08 c -0.31,0 -0.45,-0.26 -0.45,-0.62 0,-0.36 -0.43,-0.06 -0.34,0.17 a 1.19,1.19 0 0 1 0.14,0.2 1.41,1.41 0 0 1 0.31,0.48 v 0.34 h -0.34 a 3.91,3.91 0 0 0 -0.51,-0.68 c -0.06,-0.06 -0.11,-0.14 -0.17,-0.17 -0.06,-0.03 -0.37,-0.31 -0.51,-0.45 a 2.84,2.84 0 0 0 -0.45,-0.37 l -0.06,-0.14 a 1.12,1.12 0 0 0 -0.54,-1.19 l -0.17,-0.11 -0.11,-0.14 a 0.74,0.74 0 0 1 1.08,-0.09 2.22,2.22 0 0 1 0.54,1.22 c 0.43,-0.51 0.28,-1 -0.23,-1.42 a 3.21,3.21 0 0 1 -1,-0.23 c -0.25,-0.2 -0.09,-0.65 0.34,-0.48 0.43,0.17 0.34,-0.48 -0.2,-0.51 a 1.68,1.68 0 0 0 -0.6,0.11 1,1 0 0 1 -1,-0.31 c 0.31,-0.23 0.37,-0.45 0.06,-0.68 -0.71,-0.51 -0.37,-1.13 0.34,-1 l 0.54,0.31 c 0.28,0.17 0.45,-0.09 0.17,-0.34 -0.28,-0.25 -0.48,-0.31 -0.77,-0.48 L 43,33.05 a 1.21,1.21 0 0 1 -0.94,0.4 c -0.57,-0.11 -0.45,-0.65 0.2,-0.62 0.23,0 0.17,-0.26 0,-0.2 -0.17,0.06 -0.45,0.23 -0.65,0.26 A 0.67,0.67 0 0 1 40.84,32.55 2.27,2.27 0 0 1 40.67,31.7 l 0.45,-0.26 a 2.56,2.56 0 0 0 -1.45,-0.2 H 39.1 a 1.17,1.17 0 0 1 1.13,-0.79 1.36,1.36 0 0 0 -1.5,0.11 1.27,1.27 0 0 0 -1.33,0.54 h -0.25 c -0.48,-1.33 -0.06,-2 1,-2.18 -0.2,0.54 -0.06,0.79 0.54,0.6 l 0.82,-0.17 a 0.86,0.86 0 0 1 0.37,0.31 1.39,1.39 0 0 0 0.71,0.23 l 1.28,0.17 0.25,0.4 0.25,0.14 h 0.31 c 0,0.57 0.4,0.85 1,0.94 a 0.86,0.86 0 0 0 0.71,1.19 L 44.22,32 v -0.94 a 10.52,10.52 0 0 0 -6.43,-2.95 6.83,6.83 0 0 0 -0.31,-2.38 z"
         class="cls-5" />
      <path
         style="fill:#b1971b;fill-rule:evenodd"
         id="path24"
         d="m 53.69,46.77 c 0.37,-1.13 0.17,-1.73 -0.31,-1.93 -0.48,-0.2 -1.3,0.57 -0.74,1 0.14,-0.26 0.14,-0.28 0.43,-0.4 0.42,0.17 0.37,0.85 0.34,1.22 -3.17,0.2 -3.94,-5.27 -3.85,-5.53 -1.45,2.66 0.65,6.69 2.69,7.2 0.31,-2.15 2.44,-1.42 2,-0.34 a 0.53,0.53 0 0 1 -1,0 c -0.2,0.08 -0.23,0.17 -0.23,0.42 1.62,2.47 2.58,-1.5 0.71,-1.64 z"
         class="cls-5" />
      <path
         style="fill:#b1971b;fill-rule:evenodd"
         id="path26"
         d="m 41.44,23.53 a 4,4 0 0 1 0.6,2 l 1.28,-0.37 1.25,-0.23 1.19,-0.11 h 1.19 l 1.11,0.11 1.08,0.2 1,0.31 1,0.37 0.94,0.48 0.85,0.54 0.82,0.6 0.74,0.68 0.68,0.71 0.6,0.77 0.54,0.82 0.48,0.82 0.37,0.88 0.34,0.88 0.23,0.91 0.17,0.91 0.06,0.94 v 0.91 l -0.09,0.88 -0.2,0.88 v 0.09 C 62.93,29.62 53,19.19 41.44,23.53 Z"
         class="cls-5" />
      <path
         style="fill:#b1971b;fill-rule:evenodd"
         id="path28"
         d="m 50.57,38.72 a 0.64,0.64 0 0 1 0.62,0.65 0.63,0.63 0 0 1 -0.62,0.62 0.64,0.64 0 1 1 0,-1.28 z m 0,-0.71 A 1.35,1.35 0 0 1 51.9,39.37 1.33,1.33 0 0 1 50.57,40.7 1.36,1.36 0 0 1 49.21,39.37 1.38,1.38 0 0 1 50.57,38 Z"
         class="cls-5" />
      <path
         style="fill:#b1971b;fill-rule:evenodd"
         id="path30"
         d="m 51.22,37.53 a 1.94,1.94 0 0 1 1.25,1.81 2.05,2.05 0 0 1 -0.47,1.22 v 0 l 0.17,1 0.14,1 0.08,0.82 C 62.76,38.93 55.28,21.86 42.07,26.23 l 0.48,0.26 0.6,0.34 0.6,0.4 0.6,0.43 0.6,0.48 0.57,0.48 0.57,0.54 0.54,0.57 0.54,0.6 0.51,0.62 0.48,0.65 0.48,0.68 0.45,0.71 0.43,0.77 0.4,0.77 0.4,0.79 0.34,0.82 L 51,37 Z"
         class="cls-5" />
      <path
         style="fill:#b1971b;fill-rule:evenodd"
         id="path32"
         d="m 51.39,41.1 c 0.14,0.82 0.25,1.64 0.34,2.52 L 50.8,44 a 21,21 0 0 0 -0.62,-2.72 1.88,1.88 0 0 0 0.4,0 2,2 0 0 0 0.82,-0.17 z"
         class="cls-5" />
      <path
         style="fill:#b1971b;fill-rule:evenodd"
         id="path34"
         d="m 40.22,53.8 c 0,-0.11 0.11,-0.11 0.2,-0.11 0.09,0 0.14,0.6 0.34,0.48 1,-1.84 -0.37,-4.54 -0.85,-6.49 a 8.39,8.39 0 0 0 5.22,-2.44 0.67,0.67 0 0 1 0.31,0.68 18.1,18.1 0 0 0 -0.44,2.81 c 0.09,1.56 1.93,3.74 1.73,4.79 v 0 0 c -2.15,7 -14.91,6.15 -6.52,0.25 z"
         class="cls-5" />
      <path
         style="fill:#b1971b;fill-rule:evenodd"
         id="path36"
         d="m 38.61,21.83 c 10.49,-7.91 27.67,1.42 23,17.75 -0.37,1.13 -1.11,1.81 -0.88,3.43 0.62,2.41 -1.84,5.92 -0.37,9.1 A 3.26,3.26 0 0 1 57.98,47.89 4.78,4.78 0 0 0 57.72,44.6 C 57.35,43.24 56.61,42.42 57.47,41.11 A 1.92,1.92 0 0 1 58.85,41 v 0 l 0.23,0.11 0.11,-0.23 -0.2,-0.11 v 0 c -0.43,-0.23 -0.57,-0.82 -0.68,-1.25 v -0.06 a 2.1,2.1 0 0 1 1.42,-0.25 v 0 L 59.96,39.3 60,39 59.77,38.91 v 0 c -0.42,-0.17 -0.65,-0.74 -0.82,-1.16 v 0 a 2,2 0 0 1 1.36,-0.45 v 0 L 60.54,37.36 60.6,37.11 60.41,37 v 0 c -0.45,-0.08 -0.77,-0.65 -1,-1 a 1.81,1.81 0 0 1 1.28,-0.65 h 0.23 v -0.26 h -0.23 v 0 c -0.48,0 -0.85,-0.54 -1.13,-0.88 v 0 c 0.28,-0.34 0.71,-0.82 1.16,-0.85 v 0 h 0.26 L 61,33 h -0.26 c -0.45,0 -0.91,-0.4 -1.22,-0.68 0,0 0,0 0,-0.06 0.25,-0.37 0.57,-0.91 1,-1 v 0 L 60.75,31.2 60.72,31 h -0.23 v 0 c -0.48,0.11 -1,-0.25 -1.36,-0.51 v 0 c 0.2,-0.42 0.43,-1 0.85,-1.16 v 0 L 60.21,29.25 60.12,29 59.89,29.08 v 0 c -0.43,0.17 -1,-0.11 -1.42,-0.31 v 0 c 0.11,-0.43 0.25,-1 0.68,-1.28 v 0 l 0.2,-0.11 -0.14,-0.26 -0.2,0.14 v 0 a 2.13,2.13 0 0 1 -1.45,-0.09 v 0 c 0.06,-0.45 0.08,-1.08 0.45,-1.36 v 0 l 0.17,-0.17 -0.17,-0.2 -0.17,0.14 v 0 c -0.37,0.31 -1,0.2 -1.45,0.17 a 2.11,2.11 0 0 1 0.23,-1.45 v 0 l 0.17,-0.17 -0.2,-0.17 -0.14,0.17 v 0 c -0.31,0.34 -0.94,0.34 -1.36,0.37 v 0 a 2.11,2.11 0 0 1 0,-1.45 v 0 l 0.14,-0.2 -0.23,-0.17 -0.14,0.2 v 0 0 a 2.12,2.12 0 0 1 -1.3,0.57 c 0,0 0,0 0,0 a 1.92,1.92 0 0 1 -0.2,-1.42 v 0 l 0.11,-0.23 -0.25,-0.11 -0.09,0.23 v 0 c -0.2,0.43 -0.79,0.62 -1.22,0.77 v 0 c -0.2,-0.4 -0.54,-0.94 -0.4,-1.39 v 0 L 51.6,21.07 51.31,21 51.23,21.23 v 0 c -0.14,0.45 -0.71,0.74 -1.08,0.94 v 0 C 49.9,21.8 49.5,21.32 49.55,20.84 v 0 l 0.06,-0.23 -0.28,-0.06 v 0.25 0 c -0.09,0.45 -0.6,0.82 -1,1.08 v 0 c -0.31,-0.31 -0.77,-0.77 -0.77,-1.22 v 0 0 -0.23 h -0.25 v 0.23 0 a 2,2 0 0 1 -0.82,1.19 C 46.15,21.6 45.64,21.2 45.58,20.74 v 0 -0.25 H 45.3 v 0.25 0 c 0.06,0.45 -0.37,0.94 -0.65,1.28 v 0 c -0.4,-0.23 -0.94,-0.57 -1,-1 v 0 -0.23 l -0.28,0.06 0.06,0.23 v 0 c 0.11,0.45 -0.25,1 -0.48,1.36 -0.4,-0.2 -1,-0.48 -1.13,-0.91 v 0 0 l -0.08,-0.23 -0.25,0.09 0.09,0.23 v 0 a 2,2 0 0 1 -0.34,1.39 l -0.06,-0.09 v 0 a 5.34,5.34 0 0 0 -2.47,-1 z"
         class="cls-5" />
      <path
         style="fill:#b1971b;fill-rule:evenodd"
         id="path38"
         d="m 46.23,41.19 h -0.06 a 0.1,0.1 0 0 0 -0.08,0 H 46 a 2.75,2.75 0 0 0 -0.14,-0.31 v 0 L 45.8,40.8 a 0.59,0.59 0 0 0 -0.11,-0.17 v -0.06 0 L 45.6,40.48 45.46,40.34 45.29,40.2 45,40.11 A 2.45,2.45 0 0 1 44.72,39.94 C 44.55,39.77 44.35,39.63 44.18,39.49 L 44.04,39.32 C 43.98,39.26 43.95,39.21 43.9,39.15 v 0 L 43.84,39.09 C 43.84,39.09 43.8,39 43.8,39 A 0.62,0.62 0 0 1 43.66,38.77 1.68,1.68 0 0 1 43.55,38.54 L 43.49,38.34 43.43,38 a 5.59,5.59 0 0 1 -0.08,-0.68 0.09,0.09 0 0 1 0,-0.06 l -0.17,-0.4 a 0.5,0.5 0 0 0 -0.11,-0.14 l -0.11,-0.14 v 0 0 L 42.82,36.38 42.46,36 42.4,35.94 42.34,35.8 c -0.06,-0.17 -0.11,-0.37 -0.17,-0.57 -0.06,-0.2 -0.08,-0.42 -0.14,-0.62 a 0.25,0.25 0 0 1 0,-0.14 L 41.92,34.3 a 1.13,1.13 0 0 1 -0.14,-0.26 l -0.23,-0.23 v 0 -0.06 L 41.44,33.66 41.21,33.52 A 5.31,5.31 0 0 0 40.64,33.24 L 40.47,33.13 C 40.3,33.05 40.16,32.96 40.02,32.88 39.88,32.8 39.94,32.82 39.91,32.77 v 0 0 l -0.2,-0.17 c -0.06,0 -0.09,-0.09 -0.14,-0.11 h -0.06 v -0.06 l -0.06,-0.06 v 0 L 39.36,32.31 39.3,32.25 a 0.56,0.56 0 0 1 -0.23,-0.11 c -0.11,0 -0.2,-0.08 -0.31,-0.11 l -0.17,-0.06 c -0.06,0 -0.11,0 -0.14,-0.06 H 38.17 37.8 37.66 37.52 37.41 L 37.33,31.97 37,32 l -0.11,0.08 -0.08,0.09 -0.09,0.11 -0.17,0.23 a 1.62,1.62 0 0 0 -0.11,0.23 l -0.06,0.08 -0.11,0.4 a 1.16,1.16 0 0 0 0,0.31 v 0.14 l 0.06,0.48 c 0.06,0.28 0.11,0.54 0.14,0.79 a 3.16,3.16 0 0 1 0.06,0.48 v 0.17 0 a 4.06,4.06 0 0 1 -0.48,1.5 l -1.39,2.07 c -0.08,0.17 -0.14,0.23 0,0.4 0.14,0.17 0.43,0.37 0.57,0.54 0.14,0.17 0.14,0.17 0.2,0.23 v 0.06 a 0.6,0.6 0 0 0 0.09,0.14 2.24,2.24 0 0 1 0.14,0.85 c -0.08,0.62 -0.43,1 1.67,1.19 0.23,0 0.17,0.45 0,0.45 a 5.08,5.08 0 0 0 -1.47,0 v 0 0 0 0 0 0 0 0.14 0 c 0,0 0,0.08 0.06,0.11 a 2.84,2.84 0 0 1 0.23,0.4 c 0,0.11 0,0.23 0.06,0.34 0.06,0.11 0,0.14 0,0.23 v 0.2 c 0,0.08 0,0.17 0,0.26 l -0.17,0.57 v 0.14 c 0,0.06 0,0.11 0,0.17 v 0.17 0.06 0.06 0.06 0.06 0.06 l 0.06,0.06 0.06,0.06 h 0.06 l 0.06,0.06 0.08,0.06 0.08,0.06 0.11,0.06 0.43,0.17 0.43,0.11 a 8.14,8.14 0 0 0 5.24,-0.45 7.35,7.35 0 0 0 0.68,-0.31 l 0.43,-0.25 a 0.1,0.1 0 0 0 0.09,0 v 0 l 0.08,-0.06 0.11,-0.11 a 1.24,1.24 0 0 0 0.2,-0.11 c 0,0 0,0 0,-0.06 v 0 l 0.08,-0.06 A 2.12,2.12 0 0 0 44.5,45 0.45,0.45 0 0 0 44.61,44.8 l 0.23,-0.31 V 44.4 h 0.11 0.06 0.2 v -0.43 c 0,-0.14 0,-0.26 0,-0.4 a 5.44,5.44 0 0 1 0,-0.68 v -0.14 a 0.55,0.55 0 0 1 0,-0.23 c 0,-0.06 0,-0.09 0,-0.14 a 0.4,0.4 0 0 1 0.06,-0.17 0.21,0.21 0 0 1 0.06,-0.11 l 0.06,-0.11 0.06,-0.11 0.17,-0.11 v 0 l 0.25,-0.14 -0.09,0.26 v 0 z M 38.07,37.33 H 38 v 0 c -0.6,-0.37 -0.4,-0.68 -0.48,-1.25 a 0.94,0.94 0 0 0 -0.25,-0.37 1.17,1.17 0 0 1 0,-1 c 0,-0.34 -0.65,-0.23 -0.54,-0.6 0.48,-0.51 1.56,-0.37 2.21,-0.17 0.14,0.08 0.31,0.14 0.48,0.23 a 3.37,3.37 0 0 1 1.13,1.5 0.17,0.17 0 0 1 0,0.11 h -0.08 c -0.4,-0.2 -0.74,-0.54 -1.08,-0.74 -0.34,-0.2 -0.37,-0.08 -0.31,0.26 0.06,0.34 1,0.74 1,1.33 a 0.74,0.74 0 0 1 -0.23,0.08 c -0.71,0 -1.13,0.51 -1.79,0.6 z m -2,2.66 c -0.31,-0.14 -0.51,-0.28 -0.54,-0.48 0.14,-0.43 1.53,0.65 0.54,0.48 z"
         class="cls-5" />
      <path
         style="fill:#b1971b;fill-rule:evenodd"
         id="path40"
         d="m 39.71,53.52 c -4.65,0.85 -9.3,5.81 -2.47,8.08 a 14.35,14.35 0 0 0 10,-1.08 A 5.09,5.09 0 0 1 48,59 v 0 l -0.17,0.09 -0.79,0.28 c 0.06,-0.28 0.09,-0.6 0.11,-0.88 0,-0.06 0,-0.14 0.06,-0.2 a 5.59,5.59 0 0 1 0.28,-0.91 h 0.06 l 0.14,-0.2 0.06,-0.11 c 0.2,-0.2 0.42,-0.37 0.6,-0.57 l 0.09,-0.09 V 56.3 L 48.52,56.24 48.21,56.07 48.08,56 47.68,55.4 a 9.07,9.07 0 0 1 -8,4.34 c -5.07,-0.11 -4.45,-4.2 0,-6.18 z"
         class="cls-5" />
      <path
         style="fill:#b1971b;fill-rule:evenodd"
         id="path42"
         d="m 33.59,67.29 c -0.85,0 -1.73,0 -2.58,0 C 31,65.79 31,64.4 31,63 c 2.35,0 4.68,0 7,0 a 0.26,0.26 0 0 1 0.14,0 c 1.86,0 3.78,0 5.66,0 a 7.66,7.66 0 0 1 2.13,0 h 2.21 c 0.4,0 0.82,-0.09 1.28,0 1.25,0 1.67,0 2.66,0 a 1.59,1.59 0 0 0 0.37,0 c 1.47,0 3,0.06 4.56,-0.06 a 7.3,7.3 0 0 0 1.11,0 c 2.27,0 2.27,0 3.63,0 0,1.39 0,2.81 0,4.2 -3.54,0.08 -7.11,0.08 -10.63,0 -2.92,0.08 -5.84,0.11 -8.73,0.08 a 2.14,2.14 0 0 0 -0.42,0 c -4.71,0.08 -4.71,0.08 -8.33,0.08 z"
         class="cls-5" />
      <polygon
         style="fill:#b1971b;fill-rule:evenodd"
         id="polygon44"
         points="56.95,70.16 35.83,70.16 31.35,68.34 61.45,68.34 "
         class="cls-5" />
      <path
         style="fill:#b1971b;fill-rule:evenodd"
         id="path46"
         d="m 56.24,74.24 v -3 H 36.65 v 4.31 c 0.6,0.23 1.25,0.51 1.84,0.68 v -2.5 a 0.91,0.91 0 0 1 0.85,-0.94 v 0 a 0.91,0.91 0 0 1 0.88,0.94 v 3 c 0.54,0.11 1.08,0.23 1.62,0.31 V 73.9 a 1.07,1.07 0 0 1 1,-1.11 v 0 a 1.07,1.07 0 0 1 1,1.11 v 3.35 c 0.45,0 0.88,0.06 1.33,0.06 V 73.9 a 1.16,1.16 0 0 1 1.19,-1.11 v 0 a 1.17,1.17 0 0 1 1.22,1.11 v 3.4 c 0.45,0 0.91,-0.06 1.36,-0.11 V 73.9 a 1.07,1.07 0 0 1 1,-1.11 v 0 a 1.07,1.07 0 0 1 1,1.11 v 3 c 0.54,-0.09 1.08,-0.2 1.59,-0.31 v -2.86 a 0.91,0.91 0 0 1 0.85,-0.94 v 0 a 0.92,0.92 0 0 1 0.88,0.94 v 2.44 c 0.62,-0.2 1.25,-0.43 1.9,-0.65 z"
         class="cls-5" />
      <path
         style="fill:#1d1d1b;fill-rule:evenodd"
         id="path48"
         d="M 52.58,8.14 50,7.8 49.35,4.68 a 40.79,40.79 0 0 0 -6.18,0 L 42.6,7.82 40,8.16 38.55,5.3 A 36.73,36.73 0 0 0 32.63,6.92 L 32.88,10 30.44,11 28.32,8.7 A 37.44,37.44 0 0 0 23,11.79 L 24.11,14.74 22,16.38 19.36,14.6 A 42.3,42.3 0 0 0 15,19 l 1.81,2.61 -1.62,2.07 -3,-1 A 46.24,46.24 0 0 0 9.1,28 l 2.41,2 -1,2.44 -3.17,-0.2 A 36.63,36.63 0 0 0 5.75,38.16 L 8.61,39.52 8.24,42.13 5.1,42.8 a 44.56,44.56 0 0 0 0,6.15 l 3.12,0.57 0.34,2.61 -2.83,1.44 a 42.56,42.56 0 0 0 1.61,5.93 l 3.15,-0.28 1,2.47 -2.42,2.12 c 1,1.81 2,3.6 3.15,5.3 l 3,-1 1.59,2.07 -1.73,2.66 a 48.49,48.49 0 0 0 4.37,4.34 L 22,75.34 24.09,77 l -1,3 a 43.24,43.24 0 0 0 5.31,3 l 2,-2.38 2.44,1 -0.17,3.17 a 38.06,38.06 0 0 0 5.92,1.59 L 40,83.57 42.61,83.91 43.26,87 a 37.07,37.07 0 0 0 6.15,0 L 50,83.91 52.61,83.54 54,86.37 a 30.91,30.91 0 0 0 6,-1.59 l -0.28,-3.15 2.44,-1 2.1,2.37 a 40.28,40.28 0 0 0 5.3,-3.09 l -1.08,-3 2.1,-1.59 2.64,1.73 a 42.28,42.28 0 0 0 4.37,-4.37 l -1.81,-2.58 1.62,-2.07 3,1 a 47.77,47.77 0 0 0 3.09,-5.33 l -2.41,-2 1,-2.44 3.17,0.2 a 43.59,43.59 0 0 0 1.59,-6 L 84,52.16 84.37,49.5 87.46,48.88 a 40.54,40.54 0 0 0 0,-6.15 L 84.34,42.19 84,39.57 86.86,38.12 a 38.75,38.75 0 0 0 -1.64,-6 l -3.12,0.31 -1,-2.44 2.3,-2.13 a 40.06,40.06 0 0 0 -3.09,-5.33 l -2.95,1.08 -1.62,-2.1 1.76,-2.66 a 42.08,42.08 0 0 0 -4.37,-4.34 l -2.58,1.81 -2.13,-1.62 1,-3 A 42,42 0 0 0 64.09,8.61 l -2,2.41 -2.47,-1 0.2,-3.2 a 37.57,37.57 0 0 0 -6,-1.59 z m -6.24,6.12 1.62,0.06 1.59,0.11 1.59,0.2 1.56,0.28 1.5,0.34 1.5,0.42 1.47,0.51 1.42,0.57 1.39,0.62 1.36,0.71 1.33,0.77 1.28,0.82 1.25,0.88 1.19,0.94 1.13,1 1.08,1 1,1.11 1,1.16 0.98,1.24 0.88,1.25 0.82,1.28 0.72,1.31 0.68,1.36 0.65,1.39 0.61,1.41 0.48,1.45 0.43,1.5 0.34,1.53 0.28,1.56 0.2,1.56 0.14,1.62 v 1.62 1.62 l -0.14,1.62 -0.2,1.56 -0.28,1.56 -0.34,1.53 -0.43,1.5 -0.48,1.45 -0.57,1.45 -0.65,1.39 -0.72,1.37 -0.77,1.33 -0.82,1.28 -0.88,1.25 -0.94,1.19 -1,1.13 -1,1.11 -1.11,1 -1.13,1 -1.19,0.94 L 63.95,72 62.67,72.82 61.34,73.59 60,74.3 58.61,74.95 57.19,75.52 55.7,76 54.2,76.43 52.7,76.8 51.14,77 49.55,77.23 48,77.39 H 46.38 44.76 L 43.14,77.28 41.53,77 40,76.79 38.47,76.42 37,76 35.53,75.52 34.11,74.95 32.69,74.3 31.33,73.62 30,72.85 28.69,72 l -1.22,-0.88 -1.22,-0.94 -1.13,-1 -1.11,-1 -1,-1.11 -1,-1.13 L 21,64.74 20.12,63.49 19.3,62.21 18.53,60.88 17.82,59.52 17.2,58.13 16.63,56.68 16.12,55.23 15.69,53.73 15.35,52.2 15.07,50.64 14.87,49.08 14.73,47.46 v -1.62 -1.62 l 0.14,-1.62 0.2,-1.56 0.28,-1.56 0.38,-1.48 0.43,-1.5 0.51,-1.5 0.57,-1.45 0.62,-1.39 0.71,-1.36 0.77,-1.33 0.82,-1.28 L 21,27 l 1,-1.2 1,-1.16 1,-1.08 1.11,-1 1.13,-1 1.22,-0.94 1.22,-0.88 1.3,-0.82 1.3,-0.77 1.36,-0.71 1.42,-0.62 1.42,-0.57 1.52,-0.57 1.5,-0.42 1.5,-0.35 1.53,-0.28 1.59,-0.2 1.62,-0.11 z"
         class="cls-4" />
      <path
         style="fill:#b1971b;fill-rule:evenodd"
         id="path50"
         d="m 36.09,84.7 c 0.65,0.17 1.28,0.31 1.93,0.45 l 1.33,-2.81 4.2,0.57 0.62,3 a 36.47,36.47 0 0 0 4.31,0 l 0.54,-3 4.22,-0.57 1.39,2.81 A 28.82,28.82 0 0 0 58.76,84 l -0.25,-3.12 3.91,-1.59 2.1,2.32 a 37.21,37.21 0 0 0 3.71,-2.15 l -1,-2.92 3.3,-2.54 2.61,1.7 c 1,-1 2.07,-2 3,-3.06 l -1.76,-2.55 2.62,-3.33 2.95,1 c 0.77,-1.22 1.5,-2.47 2.15,-3.74 l -2.35,-2 1.64,-3.91 3.12,0.2 q 0.64,-2 1.11,-4.17 l -2.81,-1.3 0.57,-4.22 3,-0.62 a 36.48,36.48 0 0 0 0,-4.31 l -3.06,-0.54 -0.54,-4.2 2.81,-1.42 a 36.33,36.33 0 0 0 -1.16,-4.17 l -3.09,0.31 -1.54,-3.96 2.27,-2.07 A 41.36,41.36 0 0 0 79.89,23.9 L 77,25 74.39,21.6 76.14,19 a 38.93,38.93 0 0 0 -3.06,-3.06 l -2.52,1.79 -3.37,-2.58 1,-2.95 A 37.1,37.1 0 0 0 64.43,10 l -2,2.35 -3.94,-1.62 0.17,-3.15 A 34.67,34.67 0 0 0 54.49,6.47 L 53.19,9.28 49,8.79 48.38,5.73 a 36.47,36.47 0 0 0 -4.31,0 L 43.53,8.82 39.31,9.36 38,6.55 a 34.8,34.8 0 0 0 -4.17,1.13 l 0.17,3.06 -3.88,1.64 -2.1,-2.32 a 37.59,37.59 0 0 0 -3.74,2.15 L 25.36,15.1 22,17.74 19.45,16 a 39,39 0 0 0 -3.07,3 l 1.79,2.55 -2.58,3.34 -3,-1 c -0.77,1.22 -1.5,2.47 -2.15,3.74 l 2.38,2 -1.62,3.99 -3.12,-0.2 A 40.29,40.29 0 0 0 7,37.56 l 2.81,1.33 -0.57,4.2 -3.06,0.62 c -0.06,1.45 -0.06,2.89 0,4.31 L 9.24,48.56 9.78,52.78 7,54.17 a 40.93,40.93 0 0 0 1.13,4.17 l 3.09,-0.28 1.62,3.94 -2.38,2.1 c 0.71,1.25 1.45,2.49 2.21,3.71 l 2.92,-1 2.55,3.34 -1.7,2.61 a 39,39 0 0 0 3.06,3.06 L 22,74 l 3.37,2.61 -1,2.95 c 1.22,0.77 2.44,1.5 3.71,2.15 l 2,-2.35 L 34,80.93 33.85,84 c 0.77,0.23 1.5,0.45 2.24,0.65 z m 10.26,-70.44 1.62,0.06 1.59,0.11 1.59,0.2 1.56,0.28 1.5,0.34 1.5,0.42 1.47,0.51 1.42,0.57 1.39,0.62 1.36,0.71 1.33,0.77 1.28,0.82 1.25,0.88 1.19,0.94 1.13,1 1.08,1 1,1.11 1,1.16 0.97,1.24 0.88,1.25 0.82,1.28 0.72,1.31 0.68,1.36 0.65,1.39 0.61,1.41 0.48,1.45 0.43,1.5 0.34,1.53 0.28,1.56 0.2,1.56 0.14,1.62 v 1.62 1.62 l -0.14,1.62 -0.2,1.56 -0.28,1.56 -0.34,1.53 -0.43,1.5 -0.48,1.45 -0.57,1.45 -0.65,1.39 -0.72,1.37 -0.77,1.33 -0.82,1.28 -0.88,1.25 -0.94,1.19 -1,1.13 -1,1.11 -1.11,1 -1.13,1 -1.19,0.94 L 63.95,72 62.67,72.82 61.34,73.59 60,74.3 58.61,74.95 57.19,75.52 55.7,76 54.2,76.43 52.7,76.8 51.14,77 49.55,77.23 48,77.39 H 46.38 44.76 L 43.14,77.28 41.53,77 40,76.79 38.47,76.42 37,76 35.53,75.52 34.11,74.95 32.69,74.3 31.33,73.62 30,72.85 28.69,72 l -1.22,-0.88 -1.22,-0.94 -1.13,-1 -1.11,-1 -1,-1.11 -1,-1.13 L 21,64.74 20.12,63.49 19.3,62.21 18.53,60.88 17.82,59.52 17.2,58.13 16.63,56.68 16.12,55.23 15.69,53.73 15.35,52.2 15.07,50.64 14.87,49.08 14.73,47.46 v -1.62 -1.62 l 0.14,-1.62 0.2,-1.56 0.28,-1.56 0.38,-1.48 0.43,-1.5 0.51,-1.5 0.57,-1.45 0.62,-1.39 0.71,-1.36 0.77,-1.33 0.82,-1.28 L 21,27 l 1,-1.2 1,-1.16 1,-1.08 1.11,-1 1.13,-1 1.22,-0.94 1.22,-0.88 1.3,-0.82 1.3,-0.77 1.36,-0.71 1.42,-0.62 1.42,-0.57 1.52,-0.57 1.5,-0.42 1.5,-0.35 1.53,-0.28 1.59,-0.2 1.62,-0.11 z"
         class="cls-5" />
      <path
         style="fill:#1d1d1b;fill-rule:evenodd"
         id="path52"
         d="M 46.35,13.15 A 32.68,32.68 0 1 1 13.63,45.86 32.7,32.7 0 0 1 46.35,13.15 Z m 0,1.11 1.62,0.06 1.59,0.11 1.59,0.2 1.56,0.28 1.5,0.34 1.5,0.42 1.47,0.51 1.42,0.57 1.39,0.62 1.36,0.71 1.33,0.77 1.28,0.82 1.25,0.88 1.19,0.94 1.13,1 1.08,1 1,1.11 1,1.16 0.97,1.24 0.88,1.25 0.82,1.28 0.72,1.31 0.68,1.36 0.65,1.39 0.61,1.41 0.48,1.45 0.43,1.5 0.34,1.53 0.28,1.56 0.2,1.56 0.14,1.62 v 1.62 1.62 l -0.14,1.62 -0.2,1.56 -0.28,1.56 -0.34,1.53 -0.43,1.5 -0.48,1.45 -0.57,1.45 -0.65,1.39 -0.72,1.37 -0.77,1.33 -0.82,1.28 -0.88,1.25 -0.94,1.19 -1,1.13 -1,1.11 -1.11,1 -1.13,1 -1.19,0.94 L 63.95,72 62.67,72.82 61.34,73.59 60,74.3 58.61,74.95 57.19,75.52 55.7,76 54.2,76.43 52.7,76.8 51.14,77 49.55,77.23 48,77.39 H 46.38 44.76 L 43.14,77.28 41.53,77 40,76.79 38.47,76.42 37,76 35.53,75.52 34.11,74.95 32.69,74.3 31.33,73.62 30,72.85 28.69,72 l -1.22,-0.88 -1.22,-0.94 -1.13,-1 -1.11,-1 -1,-1.11 -1,-1.13 L 21,64.74 20.12,63.49 19.3,62.21 18.53,60.88 17.82,59.52 17.2,58.13 16.63,56.68 16.12,55.23 15.69,53.73 15.35,52.2 15.07,50.64 14.87,49.08 14.73,47.46 v -1.62 -1.62 l 0.14,-1.62 0.2,-1.56 0.28,-1.56 0.38,-1.48 0.43,-1.5 0.51,-1.5 0.57,-1.45 0.62,-1.39 0.71,-1.36 0.77,-1.33 0.82,-1.28 L 21,27 l 1,-1.2 1,-1.16 1,-1.08 1.11,-1 1.13,-1 1.22,-0.94 1.22,-0.88 1.3,-0.82 1.3,-0.77 1.36,-0.71 1.42,-0.62 1.42,-0.57 1.52,-0.57 1.5,-0.42 1.5,-0.35 1.53,-0.28 1.59,-0.2 1.62,-0.11 z"
         class="cls-4" />
    </g>
  </g>
</svg>
